<?xml version="1.0"?>
<svg xmlns="http://www.w3.org/2000/svg" xmlns:xlink="http://www.w3.org/1999/xlink" xmlns:svgjs="http://svgjs.com/svgjs" version="1.1" width="512" height="512" x="0" y="0" viewBox="0 0 24 24" style="enable-background:new 0 0 512 512" xml:space="preserve" class=""><g><path xmlns="http://www.w3.org/2000/svg" d="m21.25 0h-18.5c-1.517 0-2.75 1.233-2.75 2.75v18.5c0 1.517 1.233 2.75 2.75 2.75h18.5c1.517 0 2.75-1.233 2.75-2.75v-18.5c0-1.517-1.233-2.75-2.75-2.75z" fill="#004170" data-original="#2196f3" style="" class=""/><path xmlns="http://www.w3.org/2000/svg" d="m21.25 24h-18.5c-1.517 0-2.75-1.233-2.75-2.75v-18.5c0-1.517 1.233-2.75 2.75-2.75h18.5c1.517 0 2.75 1.233 2.75 2.75v18.5c0 1.517-1.233 2.75-2.75 2.75zm-18.5-22.5c-.689 0-1.25.561-1.25 1.25v18.5c0 .689.561 1.25 1.25 1.25h18.5c.689 0 1.25-.561 1.25-1.25v-18.5c0-.689-.561-1.25-1.25-1.25z" fill="#ffffff" data-original="#000000" style="" class=""/><path xmlns="http://www.w3.org/2000/svg" d="m16.25 8.5h-8.5c-.414 0-.75-.336-.75-.75s.336-.75.75-.75h8.5c.414 0 .75.336.75.75s-.336.75-.75.75z" fill="#ffffff" data-original="#000000" style="" class=""/><path xmlns="http://www.w3.org/2000/svg" d="m16.25 12.75h-8.5c-.414 0-.75-.336-.75-.75s.336-.75.75-.75h8.5c.414 0 .75.336.75.75s-.336.75-.75.75z" fill="#ffffff" data-original="#000000" style="" class=""/><path xmlns="http://www.w3.org/2000/svg" d="m16.25 17h-8.5c-.414 0-.75-.336-.75-.75s.336-.75.75-.75h8.5c.414 0 .75.336.75.75s-.336.75-.75.75z" fill="#ffffff" data-original="#000000" style="" class=""/></g></svg>
