<svg height="464pt" viewBox="0 0 464 464.03202" width="464pt" xmlns="http://www.w3.org/2000/svg"><path d="m464.015625 232c0 128.128906-103.871094 232-232 232s-232-103.871094-232-232 103.871094-232 232-232 232 103.871094 232 232zm0 0" fill="#816d58"/><path d="m440.015625 216c.054687-72.492188-33.839844-140.824219-91.582031-184.648438-105.949219-61.125-241.15625-29.496093-308.992188 72.285157-67.839844 101.78125-45 238.746093 52.191406 313.011719 71.761719 41.613281 160.285157 41.746093 232.171876.34375 71.882812-41.402344 116.195312-118.035157 116.210937-200.992188zm0 0" fill="#8d7761"/><path d="m317.382812 270.769531-59.765624 18.832031c-4.519532-14.371093-14.671876-26.296874-28.132813-33.054687-13.464844-6.761719-29.09375-7.773437-43.316406-2.8125-28.6875 10.855469-43.714844 42.398437-34.070313 71.511719l18.789063 59.738281c8.769531 27.863281 30.144531 49.976563 57.699219 59.679687l-6.808594 19.113282c3.390625.144531 6.789062.253906 10.214844.253906 26.164062.011719 52.140624-4.417969 76.824218-13.09375l.0625-.351562-15.277344-47.121094c-.660156-2.03125-.480468-4.238282.5-6.132813.976563-1.898437 2.671876-3.324219 4.707032-3.964843l54.261718-17.070313c14.375-4.523437 26.300782-14.671875 33.058594-28.136719 6.757813-13.464844 7.769532-29.09375 2.808594-43.320312-10.855469-28.707032-42.425781-43.738282-71.554688-34.070313zm0 0" fill="#89745e"/><path d="m298.769531 393.367188 54.261719-17.070313c14.371094-4.523437 26.296875-14.671875 33.054688-28.136719 6.757812-13.464844 7.773437-29.09375 2.808593-43.320312-10.851562-28.6875-42.394531-43.714844-71.511719-34.070313l-59.765624 18.832031c-4.519532-14.371093-14.671876-26.296874-28.132813-33.054687-13.464844-6.761719-29.09375-7.773437-43.316406-2.8125-28.6875 10.855469-43.714844 42.398437-34.070313 71.511719l18.789063 59.738281c8.769531 27.863281 30.144531 49.976563 57.699219 59.679687l-.882813 2.472657c25.515625-2.136719 50.492187-8.507813 73.914063-18.855469l-8.050782-24.800781c-.660156-2.03125-.484375-4.242188.492188-6.140625.976562-1.898438 2.671875-3.328125 4.710937-3.972656zm0 0" fill="#9a826a"/><g fill="#746250"><path d="m160.015625 128c0 13.253906-10.746094 24-24 24s-24-10.746094-24-24 10.746094-24 24-24 24 10.746094 24 24zm0 0"/><path d="m232.015625 88h16v16h-16zm0 0"/><path d="m344.015625 104h16v16h-16zm0 0"/><path d="m280.015625 72h16v16h-16zm0 0"/><path d="m176.015625 64h16v16h-16zm0 0"/><path d="m48.015625 160h16v16h-16zm0 0"/><path d="m224.015625 176h16v16h-16zm0 0"/><path d="m96.015625 360h16v16h-16zm0 0"/><path d="m64.015625 336h16v16h-16zm0 0"/><path d="m288.015625 213.664062h-.320313l-24-.976562c-4.417968-.175781-7.855468-3.902344-7.679687-8.320312.175781-4.417969 3.902344-7.855469 8.320313-7.679688l24 .96875c4.417968.085938 7.929687 3.738281 7.84375 8.15625-.085938 4.417969-3.738282 7.929688-8.15625 7.84375zm0 0"/><path d="m462.808594 208.183594c-.542969-5.34375-1.335938-10.617188-2.242188-15.847656l-10.214844 1.144531c-40.5625 4.5-81.378906 6.371093-122.183593 5.597656h-.152344c-4.417969-.039063-8.035156 3.507813-8.074219 7.925781-.042968 4.417969 3.503906 8.035156 7.921875 8.074219 5.988281.113281 11.980469.167969 17.976563.167969 35.511718.019531 70.992187-1.933594 106.289062-5.839844zm0 0"/><path d="m352.015625 160c-27.136719.351562-54.273437-.773438-81.289063-3.375l-11.199218-1.871094c-4.359375-.726562-7.304688-4.847656-6.578125-9.207031.722656-4.359375 4.84375-7.304687 9.203125-6.578125l11.199218 1.871094c26.144532 2.5 52.40625 3.554687 78.664063 3.160156 4.417969 0 8 3.582031 8 8s-3.582031 8-8 8zm0 0"/><path d="m449.152344 154.769531c.507812-.121093 1-.296875 1.472656-.523437-1.820312-5.085938-3.800781-10.085938-5.945312-15l-16.886719 2.402344c-6.152344.871093-18.929688 1.597656-36 1.976562-4.417969.050781-7.960938 3.671875-7.910157 8.089844.050782 4.417968 3.675782 7.960937 8.09375 7.910156h.183594c12.488282-.296875 29.191406-.898438 37.855469-2.136719zm0 0"/><path d="m72.015625 271.601562c-4.417969.101563-8.082031-3.398437-8.183594-7.816406-.101562-4.417968 3.398438-8.082031 7.816407-8.183594 9-.417968 18.136718-1.203124 27.144531-2.328124l20.238281-2.53125c4.324219-.433594 8.203125 2.65625 8.742188 6.96875.539062 4.3125-2.460938 8.265624-6.757813 8.90625l-20.238281 2.535156c-9.425782 1.175781-18.96875 1.992187-28.378906 2.398437zm0 0"/><path d="m40.351562 255.6875c-8.414062-.351562-16.917968-1.015625-25.289062-1.984375-5.71875-.65625-10.328125-1.160156-14.117188-1.597656.46875 5.488281 1.09375 10.933593 1.941407 16.308593 3.007812.328126 6.3125.699219 10.34375 1.160157 8.753906 1 17.648437 1.707031 26.449219 2.066406h.335937c4.417969.089844 8.074219-3.417969 8.164063-7.835937.089843-4.417969-3.417969-8.074219-7.835938-8.164063zm0 0"/><path d="m103.023438 296.0625-20.238282 2.53125c-24.101562 2.957031-48.441406 3.414062-72.632812 1.367188 1.71875 5.597656 3.6875 11.136718 5.816406 16.566406 7.703125.480468 15.421875.800781 23.152344.800781 15.257812-.003906 30.503906-.949219 45.648437-2.839844l20.238281-2.535156c2.890626-.292969 5.390626-2.125 6.542969-4.792969 1.148438-2.664062.765625-5.746094-1.007812-8.046875-1.769531-2.300781-4.648438-3.460937-7.519531-3.035156zm0 0"/><path d="m104.015625 218.511719c-4.242187-.007813-7.742187-3.332031-7.96875-7.570313-.226563-4.238281 2.894531-7.917968 7.113281-8.382812 7.847656-.855469 15.761719-1.941406 23.511719-3.238282 2.851563-.546874 5.777344.492188 7.640625 2.71875 1.867188 2.226563 2.378906 5.285157 1.339844 8-1.039063 2.710938-3.464844 4.648438-6.339844 5.058594-8.054688 1.351563-16.273438 2.476563-24.425781 3.367188-.289063.03125-.578125.046875-.871094.046875zm0 0"/><path d="m71.742188 204.800781c-15.558594.53125-31.136719.214844-46.664063-.945312l-23.085937-1.734375c-.671876 5.261718-1.199219 10.566406-1.519532 15.925781l23.398438 1.769531c10.976562.800782 22.074218 1.238282 33.167968 1.238282 5.101563 0 10.183594-.085938 15.25-.261719 4.417969-.152344 7.878907-3.855469 7.726563-8.273438-.148437-4.417969-3.851563-7.878906-8.273437-7.726562zm0 0"/></g></svg>